<?xml version="1.0" encoding="utf-8"?>
<!-- Generator: Adobe Illustrator 22.0.1, SVG Export Plug-In . SVG Version: 6.00 Build 0)  -->
<svg version="1.1" id="Capa_1" xmlns="http://www.w3.org/2000/svg" xmlns:xlink="http://www.w3.org/1999/xlink" x="0px" y="0px"
	 viewBox="0 0 512 512" style="enable-background:new 0 0 512 512;" xml:space="preserve">
<style type="text/css">
	.st0{fill:#FFFFFF;}
</style>
<g>
	<path class="st0" d="M256,0C114.8,0,0,114.8,0,256c0,71.1,30,139.7,82.2,188c4.2,3.9,10.8,3.6,14.7-0.6c3.9-4.2,3.7-10.8-0.6-14.7
		c-48-44.4-75.5-107.3-75.5-172.7C20.8,126.3,126.3,20.8,256,20.8S491.2,126.3,491.2,256S385.7,491.2,256,491.2
		c-5.8,0-10.4,4.7-10.4,10.4c0,5.8,4.7,10.4,10.4,10.4c141.2,0,256-114.8,256-256S397.2,0,256,0z"/>
	<path class="st0" d="M146.2,156.6h219.6c5.8,0,10.4-4.7,10.4-10.4c0-5.8-4.7-10.4-10.4-10.4H146.2c-5.8,0-10.4,4.7-10.4,10.4
		C135.8,151.9,140.4,156.6,146.2,156.6z"/>
	<path class="st0" d="M146.2,266.4h219.6c5.8,0,10.4-4.7,10.4-10.4s-4.7-10.4-10.4-10.4H146.2c-5.8,0-10.4,4.7-10.4,10.4
		S140.4,266.4,146.2,266.4z"/>
	<path class="st0" d="M376.2,365.8c0-5.8-4.7-10.4-10.4-10.4H146.2c-5.8,0-10.4,4.7-10.4,10.4c0,5.8,4.7,10.4,10.4,10.4h219.6
		C371.6,376.2,376.2,371.6,376.2,365.8z"/>
</g>
</svg>
