<svg xmlns="http://www.w3.org/2000/svg" viewBox="0 0 58 58"><defs><style>.cls-1{fill:none;stroke:#231f20;stroke-linecap:round;stroke-linejoin:round;stroke-width:2px;}</style></defs><title>Ресурс 2</title><g id="Слой_2" data-name="Слой 2"><g id="icons"><path class="cls-1" d="M21.58,17.29a5.89,5.89,0,0,0,0-8.33L15.34,2.72A5.89,5.89,0,0,0,7,2.72L3.58,6.15A8.82,8.82,0,0,0,2.47,17.26,136.9,136.9,0,0,0,40.74,55.53a8.83,8.83,0,0,0,11.11-1.11L55.28,51a5.89,5.89,0,0,0,0-8.33L49,36.42a5.89,5.89,0,0,0-8.33,0L38.62,38.5A139.69,139.69,0,0,1,19.5,19.38Z"/></g></g></svg>