<?xml version="1.0" encoding="utf-8"?>
<!-- Generator: Adobe Illustrator 21.0.0, SVG Export Plug-In . SVG Version: 6.00 Build 0)  -->
<svg version="1.1" id="Лого_x5F_ЛМ_xA0_Изображение_1_"
	 xmlns="http://www.w3.org/2000/svg" xmlns:xlink="http://www.w3.org/1999/xlink" x="0px" y="0px" viewBox="0 0 380.9 72"
	 style="enable-background:new 0 0 380.9 72;" xml:space="preserve">
<style type="text/css">
	.st0{fill-rule:evenodd;clip-rule:evenodd;fill:#06426C;}
</style>
<g>
	<path class="st0" d="M12.9,21.1c-0.1,0.3-0.1,0.4-0.2,0.7c-0.1,0.2-0.4,0.6-0.5,0.7c-0.4,1-0.8,2.1-1.2,3.2
		c-0.8,2.1-1.6,4.5-2.5,6.7C8,33.5,7.2,35.2,7,36c-0.2,0.7-0.3,0.7-0.5,1.2c-0.5,1.4-0.8,2.3-1.2,3.5C5.1,41,5.1,41.1,5,41.4
		c-0.1,0.2-0.4,0.6-0.5,0.7c-0.2,0.6-0.3,1.2-0.5,1.7c-0.1,0.3-0.4,0.5-0.5,0.7c-0.2,0.3,0,0.7-0.2,1c-0.3,0.4-1.2,1.2-1.7,1.5
		C1.1,47.4,0,47.1,0,47.9c0.8,0.6,1.9,0,3,0c1.6,0,3.5,0.3,4.7,0c0.2-0.7-0.6-0.5-1-0.7c-0.6-0.3-0.8-0.2-1-1
		c-0.2-0.6,0.3-1.6,0.7-2.7c1.1-2.9,2.6-6.2,3.2-8.7c0.1-0.5,0.4-0.8,0.5-1.2c0-0.2,0.2-0.2,0.2-0.2c0.3-0.9,0.4-1.9,0.7-2.7
		c0,0,0.2,0,0.2,0c0.1-0.1,0-0.4,0-0.5c0.1-0.1,0.4-0.6,0.5-0.7c0.1-0.1,0-0.4,0-0.5c0.2-0.5,0.3-0.8,0.5-1.2
		c0.3-0.7,0.4-1.8,1.2-1.7c0.9,2.8,2.3,6.3,3.7,10.2c0.4,1.1,1,2.5,1.2,3.5c0.1,0.5,0.4,0.8,0.5,1.2c0,0.2,0.2,0.2,0.2,0.2
		c0.3,0.7,0.4,1.8,0.7,2.7c0.1,0.2,0.4,0.5,0.5,0.7c0.1,0.3,0.2,0.5,0.2,0.7c0.1,0.6,0.4,0.7,0.2,1.2c-0.2,0.9-2,0.7-1.5,1.7
		c1.8-0.3,4.1-0.3,6.2-0.2c1,0,2.2,0.7,2.7-0.2c-0.6-0.5-1.8-0.5-2.5-1c-0.9-0.7-1.5-2.8-2-4c-0.1-0.1-0.4-0.6-0.5-0.7
		c-0.3-0.7-0.3-1.4-0.5-2c0-0.1-0.4-0.4-0.5-0.5c-0.1-0.3-0.2-0.8-0.2-1c-0.2-0.4-0.1-0.6-0.2-1c-0.1-0.1-0.4-0.6-0.5-0.7
		c-0.5-1.3-0.8-2.6-1.2-3.7c0-0.1-0.2,0-0.2-0.2c0-0.2,0.1-0.3,0-0.5c0-0.1-0.4-0.6-0.5-0.7c-0.5-1.4-0.8-2.4-1.2-3.7
		c0-0.1-0.4-0.6-0.5-0.7c-0.1-0.4-0.1-0.7-0.2-1c-0.4-1.1-0.8-2.4-1.2-3.5c-0.1-0.1-0.4-0.6-0.5-0.7c-0.6-1.4-0.6-2.9-1.7-3.2
		C13.4,19.3,13.3,20.1,12.9,21.1z"/>
	<path class="st0" d="M247.2,26.3c-0.6,5.3-1.1,11-1.7,16.2c-0.3,2.7-0.5,3.5-1.7,4.5c-0.5,0.4-1.6,0.4-1.5,1.2
		c2.5-0.4,5.6-0.2,8.2,0c0.1-0.9-0.8-0.7-1.2-1c-0.6-0.4-0.9-0.4-1.2-1.2c-0.3-1,0.1-2.7,0.2-4.5c0.2-3.1,0.3-6.2,0.5-8.9
		c0.1-1.5,0.1-3,0.7-4c3.3,6.2,6.2,12.9,9.4,19.1c0.9-0.1,1.1-1.3,1.5-2c1.3-2.4,2.4-5,3.5-7.5c0.4-0.9,0.9-1.6,1.2-2.2
		c0.4-0.8,0.6-1.9,1-2.7c0.2-0.4,0.5-0.6,0.7-1c0.5-1,0.9-1.8,1.2-2.5c0.2-0.5,0-1.2,0.7-1.2c0.4,2.1,0.7,5.4,1,8.9
		c0.2,2.2,0.7,4.7,0.5,7c-0.1,0.8-0.2,1.9-0.5,2.2c-0.5,0.7-1.3,0.6-1.7,0.7c-0.3,0.1-0.6,0-0.5,0.5c2.5,0.2,6.2-0.1,9.4,0
		c0.1-0.5-0.2-0.3-0.5-0.5c-0.5-0.3-0.9-0.3-1.2-0.5c-1.1-0.5-0.8-3-1-4.7c-0.6-5.5-1.4-11.4-2-16.6c-0.3-2.4-0.1-4.8-1-6.7
		c-1.2,0.2-1.3,1.6-1.7,2.5c-1,2-1.8,3.8-2.7,5.7c-0.7,1.5-1.4,2.9-2,4.2c-0.5,1-1.1,1.9-1.5,2.7c-0.2,0.5-0.3,1.2-0.5,1.7
		c-0.1,0.1-0.4,0.3-0.5,0.5c-0.1,0.3-0.1,0.5-0.2,0.7c-0.8,1.5-1.4,3-2.2,4.2c-1.4-1.5-1.8-3.6-2.7-5.5c-0.2-0.4-0.5-0.8-0.7-1.2
		c-0.9-1.7-2.1-3.9-2.7-5.5c-0.5-1.1-0.9-2-1.2-2.7c-1.2-2.4-2.4-4.8-3.5-7.2c-0.3,0-0.3-0.3-0.7-0.2
		C247.4,20.7,247.5,23.3,247.2,26.3z"/>
	<path class="st0" d="M89.7,19.3c-2.1,0.5-4.9,0-6.7,0c-0.5,0-1.7-0.4-1.7,0.5c0.1,0.6,1.1,0.2,1.7,0.5c0.6,0.3,0.5,0.2,0.7,0.7
		c0,0.1,0.4,0.1,0.5,0.2c0.3,0.7,0,3.6,0,6c0,5.6,0.6,10.8,0.2,16.1c-0.1,1-0.1,2.3-0.2,2.5c-0.3,0.5-1,0.7-1.5,1
		c-0.7,0.4-1.9,0.2-1.7,1c1.5,0.3,3.1,0,4.7,0c10.2-0.2,21.5-0.3,31.3,0c1.5,0,3.1,0.5,4.5-0.2c-0.8-0.5-2.2-0.6-2.7-1
		c-1.2-0.9-0.7-3.6-0.7-6.7c0-4.2,0-8.2,0-12.2c0-3.7-0.4-6.6,1-7.5c0.6-0.4,2.1,0.2,1.7-0.7c-0.9-0.6-2.3,0-3.5,0
		c-1.1,0-2.2,0-3.2,0c-1,0-2.3-0.8-2.7,0.2c0.3,0.6,1,0.3,1.5,0.5c0.6,0.2,0.9,0.4,1.2,1c0.6,1.1,0.2,3.7,0.2,6
		c0,6,0.2,14.2-0.2,18.6c-2.7,0-5.8,0-8.2,0c-0.9,0-1.9,0.2-2.7-0.2c0-5.8,0-15,0-21.1c0-2.8-0.2-3.5,1.2-4.2
		c0.5-0.2,1.6,0.2,1.5-0.7c-1.1-0.6-2.3,0-3.7,0c-1.9,0.1-4-0.4-5.5,0c-0.2,0.8,0.9,0.6,1.2,0.7c1.5,0.7,1.4,1.6,1.5,3.7
		c0,1,0,2.2,0,3.2c0,6,0.2,14.1-0.2,18.6c-2.7,0-5.8,0-8.2,0c-0.9,0-1.9,0.2-2.7-0.2c0-4.9,0-13,0-18.6c0-2.1-0.4-5,0.2-6
		c0.4-0.7,0.8-0.5,1.5-0.7c0.5-0.2,1.5,0,1.2-1C90.6,18.9,90.2,19.2,89.7,19.3z"/>
	<path class="st0" d="M309.6,19.6c-0.3,0.1-0.5,0.2-0.7,0.2c-0.3,0.1-0.5,0.2-0.7,0.2c-0.6,0.2-0.7,0.3-1,0.5c-0.8,0.4-1.4,0.6-2,1
		c-1.4,0.9-3.1,2.9-3.7,4.2c-0.4,0.8-1.1,2.2-1.2,2.7c-0.1,0.3-0.2,0.5-0.2,0.7c-0.1,0.4-0.2,0.8-0.2,1c-0.6,2.6-0.2,6.3,0.2,8.2
		c0,0.1,0.5,0.6,0.5,0.7c0.2,0.6,0.3,1.2,0.5,1.7c0.1,0.1,0.4,0.3,0.5,0.5c0.3,0.5,0.3,1,0.5,1.2c0.6,0.6,0.9,0.9,1.5,1.5
		c0.3,0.3,0.6,1,1,1.2c0.3,0.3,0.9,0.4,1,0.5c0.2,0.2,0.5,0.3,0.7,0.5c0.2,0.2,0.2,0.1,0.5,0.2c2.7,1.6,6.9,2,10.4,1.7
		c1.9-0.2,5.4-0.3,6.2-1.2c0.5-0.5,0.6-1.6,0.7-2.5c0.2-0.9,0.6-2,0-2.7c-0.6,0.7-0.6,1.4-1,2c-2.2,3.4-8.7,3.9-12.4,2
		c-2.5-1.3-3.6-2.5-5-5c-0.7-1.3-1.4-2.8-1.7-4.2c-0.6-2.7-0.3-7.2,0.2-9.2c0-0.1,0.4-0.6,0.5-0.7c0.1-0.4,0.1-1,0.2-1.2
		c0.3-0.6,1.9-2.7,2.2-2.7c0.3,0,0.1-0.2,0.2-0.2c0.5-0.3,0.9-0.5,1.2-0.7c0.7-0.4,1.1-0.5,2-0.7c0.1,0,0-0.2,0.2-0.2
		c1.3-0.3,3.2-0.5,5.2-0.2c1.3,0.1,4.2,1,4.7,1.5c0.7,0.6,1.5,1.2,2,2c0.4,0.7,0.3,1.8,1.2,2.2c0.7-1.9-0.2-3.9,0.2-5.7
		C319.1,19.2,314.1,18.5,309.6,19.6z"/>
	<path class="st0" d="M340.9,19.6c-4.7,0-9.6,0.3-12.4-0.5c-0.3,1.3-1.7,3.7-0.5,4.5c0.1-0.9,0.5-1.5,1.2-1.7c0.7-0.3,2.7,0,4,0
		c1.6,0,3.1,0,4.2,0c0,5.8,0,15,0,21.1c0,3,0.1,3.5-1.5,4.2c-0.5,0.2-1.6,0-1.7,0.7c1.9,0.3,4.8-0.1,7.2,0c1.4,0,2.7,0.8,3.5-0.2
		c-0.9-0.3-2.3-0.2-3-1.2c-0.8-1.1-0.5-3.4-0.5-5.7c0-5.4,0-11.1,0-15.9c0-1.1-0.2-2.2,0.2-3c2.3,0.3,7-0.5,8,0.2
		c0.6,0.4,0.2,1.4,1,1.5c0.2-1.2,0.8-3.1,0.5-4C348.1,19.6,344.4,19.6,340.9,19.6z"/>
	<path class="st0" d="M27.1,19.6c-1.2,0-2.6-0.9-3.2,0.2c0.9,0.5,2,0.4,2.5,1c0.1,0.1,0.4-0.1,0.5,0c0.7,0.5,1.5,2.7,2,3.7
		c0.2,0.5,0.6,1,0.7,1.2c0.4,0.8,0.6,1.8,1,2.7c0.1,0.1,0.4,0.4,0.5,0.5c0.4,0.8,0.5,1.7,0.7,2.2c0.2,0.4,0.6,0.6,0.7,1
		c0.1,0.1,0,0.4,0,0.5c0.1,0.2,0.2,0.2,0.2,0.2c1,2.6,2.3,5.1,3.2,7.5c0.2,0.6,0.5,1.2,0.5,1.5c0,0.8-0.8,1.9-1,2.2
		c-0.2,0.3,0,0.7-0.2,1c-0.6,0.8-1.8,1.5-2.5,1.7c-0.8,0.3-1.9-0.1-2.5,0.7c1.6,0.6,4.2,0.1,6.2,0.2c1.6-2.1,2.5-5.3,3.5-7.7
		c0.1-0.1,0.4-0.6,0.5-0.7c0.2-0.4,0.1-0.6,0.2-1c0.1-0.1,0.4-0.6,0.5-0.7c0.2-0.4,0.1-0.6,0.2-1c0.1-0.1,0.4-0.6,0.5-0.7
		c0.2-0.4,0.1-0.6,0.2-1c0.1-0.1,0.4-0.6,0.5-0.7c0.4-1.1,0.7-1.9,1-2.7c0.5-1.2,1.1-2.5,1.5-3.5c0.3-0.7,0.5-1.2,0.7-1.7
		c0.1-0.3,0.4-0.5,0.5-0.7c0.3-0.6,0.2-1.4,0.5-2c0.1-0.2,0.4-0.5,0.5-0.7c0.3-0.5,0.3-0.9,0.5-1.2c0.2-0.4,0.9-0.8,1.2-1
		c0.8-0.5,2-0.2,2.5-1c-2.1-0.4-5.2,0.2-8,0c-0.2,0.6,0.5,0.5,0.7,0.7c0.4,0.3,0.6,0.3,0.7,1c0,0.2-0.2,1.4-0.5,2.2
		c-0.3,1-0.9,2.1-1.2,2.7c-0.5,1-0.9,2.2-1.2,3c-0.1,0.2-0.4,0.6-0.5,0.7c-0.2,0.5-0.6,1.5-0.7,2c-0.1,0.3-0.3,0.6-0.5,1
		c-0.6,1.5-0.8,3.1-1.7,4c-0.7-0.3-0.7-1.2-1-1.7c-0.3-0.7-0.7-1.3-1-2c-0.6-1.4-1.1-2.6-1.7-4c-0.2-0.4-0.7-1.1-0.7-1.5
		c0-0.3-0.2-0.1-0.2-0.2c-0.3-0.8-0.5-1.5-0.7-2.2c-0.5-1.4-1.3-2.7-1.5-4.2c-0.2-1,1-0.6,1-1.5C31.4,19.3,29,19.6,27.1,19.6z"/>
	<path class="st0" d="M55.4,19.6c-1.3-0.1-3.2-0.8-3.5,0.2c1.1,0.6,2.2,0.4,2.7,1.2c0.6,0.9,0.2,2.6,0.2,3.7c0,1.5-0.1,3.1,0,4.2
		c0.5,4.7,3.1,6.9,7.5,7.2c1.7,0.1,4.4-0.3,5.2-0.5c0.2,0,0.3,0.1,0.5,0c0.1,0,0.6-0.4,0.7-0.5c0.5-0.2,1-0.3,2-0.5
		c-0.2,2.7,0.3,8.3-0.2,10.2c-0.1,0.4,0,0.5-0.2,0.7c-0.1,0.1,0,0.4,0,0.5c-0.4,0.8-1,0.8-1.7,1c-0.2,0.1-1.2,0-1.2,0.7
		c1.3,0.3,3.5,0,5.5,0c1,0,2.1,0,3,0c0.8,0,1.8,0.6,2.2-0.2c-0.8-0.4-2.3-0.5-3-1.5c-1.2-1.9-0.5-7.5-0.5-11.9
		c0-3.3-0.6-12.1,0.5-13.4c0.6-0.7,2.4-0.5,2.5-1.2c-1.6-0.4-3.6,0.1-5.7,0c-1.3,0-2.9-0.9-3.7,0.2c0.5,0.5,1.1,0.3,1.5,0.5
		c1.7,0.9,1.2,3.7,1.2,6.7c0,2.2,0.4,4.9,0,5.7c-0.3,0.6-1.8,1.1-2,1.2c-0.1,0.1-0.4,0-0.5,0c-1.3,0.5-4,0.6-5.2,0.2
		c-0.2-0.1-0.5,0.1-0.7,0c-0.1,0-0.4-0.4-0.5-0.5c-0.3-0.2-0.7,0-1-0.2c-0.7-0.5-1.5-1.6-1.7-2.2c-0.6-1.4-1-8.5-0.2-9.9
		c0.3-0.5,0.6-0.8,1-1c0.2-0.1,1.1,0.1,1.2-0.7C59.7,19.2,57.4,19.7,55.4,19.6z"/>
	<path class="st0" d="M124.7,19.3c-0.3,0.1-0.4,0.3-0.5,0.5c0.4,0.3,2.5,0.4,3,1.7c0.4,1,0,3.8,0,6.2c0,4.5,0,8.6,0,12.9
		c0,1.7,0.2,3.5,0,4.7c-0.2,1.3-1,1.4-2,1.7c-0.7,0.2-1.6,0-1.5,0.7c2.3,0.1,5.1,0,8,0c2.8,0,5.8,0,8.4,0c0.7-1.2,1.1-2.7,1.5-4.2
		c-1.3,0.5-1.2,1.7-3,2.2c-2.4,0.8-6.6,0.5-7.5-1c-0.7-1.3-0.2-3.5-0.2-5.2c0-1.9,0-3.8,0-5.7c2.2-0.4,5.6-0.4,7.5,0.2
		c0.4,0.7,0.1,2.1,1,2.2c-0.2-2.7,0-4.3,0-7.2c-0.9,0.1-0.6,1.2-0.7,1.5c-0.2,0.4-0.3,0.9-1,1.2c-0.6,0.3-2.4,0-3.5,0
		c-1.3,0-2.4,0.2-3.2-0.2c0.2-3.4-0.3-7.4,0.2-10.4c2.4,0.5,5.5-0.7,7.5,0c0.1,0,0.4,0.4,0.5,0.5c0.2,0.1,0.5,0,0.5,0.2
		c0,0.3,0.1,0.1,0.2,0.2c0.3,0.4,0.2,1.2,1,1.2c0.6-1.3-0.1-2.7,0-4.2C135.9,19.6,129.7,19.8,124.7,19.3z"/>
	<path class="st0" d="M144.6,19.3c-0.2,0-0.3,0.2-0.5,0.2c0.1,0.2,0,0.5,0.2,0.5c0.4,0.1,2,0.3,2.5,1.2c0.8,1.4,0.1,5.1,0,7.5
		c-0.1,2.6,0,5.8,0,8.7c0,3.2,0.5,7.4-0.2,8.7c-0.7,1.2-2.8,0.9-3.2,1.7c2.3,0.2,5.1,0,8,0c2.9,0,5.8,0,8.4,0
		c0.8-1.1,1.3-2.5,1.5-4.2c-0.6,0-0.7,0.7-1,1c-0.4,0.4-0.7,0.7-1.2,1c-1.4,0.7-5.7,0.6-6.7,0.2c-0.2-0.1-0.5-0.1-0.7-0.2
		c-1.3-0.8-0.7-4.2-0.7-6.5c0-0.9,0-1.9,0-2.7c0-0.9-0.2-1.7,0.2-2.5c0.8-0.4,1.9-0.3,3.2-0.2c0.9,0,3.2,0.1,3.5,0.2
		c1.1,0.7,0.1,1.9,1.2,2.5c0-1.1,0-2.5,0-3.7c0-1.4,0.2-2.6-0.2-3.5c-0.7,1.1-0.1,2.2-1.2,2.7c-1.4,0.7-5.4-0.6-6.7,0
		c0.2-3.5-0.3-7.6,0.2-10.7c2.8,0.2,6.9-0.4,8,0.5c0.5,0.5,0.7,0.9,1,1.2c0.2,0.2,0.2,0.6,0.7,0.5c-0.1-1.4,0.3-3.3-0.2-4.2
		C155.6,19.6,149.5,19.8,144.6,19.3z"/>
	<path class="st0" d="M280.3,19.3c-0.3,0.1-0.4,0.3-0.5,0.5c0.4,0.3,2.5,0.4,3,1.7c0.4,1,0,3.8,0,6.2c0,4.5,0,8.6,0,12.9
		c0,1.7,0.2,3.5,0,4.7c-0.2,1.3-1,1.4-2,1.7c-0.7,0.2-1.6,0-1.5,0.7c2.3,0.2,5.1,0,8,0c2.8,0,5.8,0,8.4,0c0.7-1.2,1.1-2.7,1.5-4.2
		c-1.3,0.5-1.2,1.7-3,2.2c-0.2,0.1-1,0.2-1.2,0.2c-2.4,0.3-5.5,0.1-6.2-1.2c-0.7-1.3-0.2-3.5-0.2-5.2c0-1.9,0-3.8,0-5.7
		c2.2-0.4,5.6-0.4,7.5,0.2c0.4,0.7,0.1,2.1,1,2.2c-0.4-2.6,0-4.4,0-7.2c-0.9,0.1-0.6,1.2-0.7,1.5c-0.2,0.4-0.3,0.9-1,1.2
		c-0.6,0.3-2.4,0-3.5,0c-1.3,0-2.4,0.2-3.2-0.2c0.2-3.4-0.3-7.4,0.2-10.4c2.4,0.5,5.5-0.7,7.5,0c0.1,0,0.4,0.4,0.5,0.5
		c0.2,0.1,0.5,0,0.5,0.2c0,0.3,0.1,0.1,0.2,0.2c0.3,0.4,0.2,1.2,1,1.2c0.6-1.3-0.2-2.6,0-4.2C291.4,19.6,285.2,19.8,280.3,19.3z"/>
	<path class="st0" d="M184.4,0.4c0,0,0-0.2,0.2-0.2c6.1-0.4,12.4,0,19.1,0c3.2,0,6.3,0,9.7,0c3,0,7.1-0.4,8.9,0.5
		c0.1,0.1,0,0.2,0.2,0.2c0.8,0,2.1,1.6,2.7,2.2c0.1,0.1,0.4,0.6,0.5,0.7c0,0.1-0.1,0.4,0,0.5c0.6,0.5,0.6,1.8,1.5,2.5
		c0.9,0.7,2.1,0.7,3.2,1.2c0.9,0.4,1.9,1,2.5,1.7c0.1,0.1-0.1,0.4,0,0.5c0.4,0.3,0.7,0.8,1,1.5c0.8,1.9,0.8,4.7,1,7.5
		c0.6,7.4,1,13.8,1.5,20.9c0.3,3.7,0.6,8.1,0.2,11.2c0,0.2,0.1,0.5,0,0.7c0,0.1-0.5,0.6-0.5,0.7c-0.2,0.7-0.3,1.5-0.5,2
		c0,0.1-0.2,0-0.2,0.2c0,0.5-0.6,0.6-0.7,1c-0.1,0.1,0.1,0.4,0,0.5c-0.1,0.1-0.5,0.2-0.5,0.2c-0.1,0.1,0.1,0.4,0,0.5
		c-0.3,0.4-0.9,0.7-1.2,1c-0.6,0.6-1,1.1-1.7,1.7c-0.2,0.1-0.4,0.4-0.5,0.5c-0.3,0.2-0.8,0.3-1.2,0.5c-0.9,0.5-2.2,1.2-3.5,1.7
		c-1.7,0.7-3.3,1.3-5,1.7c-3.7,1.1-7.4,1.8-10.2,3.2c-0.2,0.1-0.4,0.5-0.7,0.5c-0.4,0-0.6,0.5-1,0.7c-0.1,0.1-0.4-0.1-0.5,0
		c-1,1.2-2.6,2.9-5,3c-1.9,0.1-3.3-0.7-4.7-1.7c-1.3-1-2.2-2.1-3.5-2.7c-0.4-0.2-1-0.3-1.5-0.5c-2.7-1-6.2-1.8-9.4-2.7
		c0,0-0.1-0.2-0.2-0.2c-2.5-0.6-5-1.7-7.2-3c-0.4-0.2-0.9-0.3-1.2-0.5c-0.2-0.1-0.3-0.4-0.5-0.5c-0.4-0.3-0.9-0.7-1.5-1.2
		c-0.4-0.3-0.7-0.5-1-0.7c-0.2-0.2-0.2-0.7-0.5-1c-0.3-0.3-0.5-0.5-0.7-0.7c-1-1.4-1.7-2.6-2.2-4.7c-0.1-0.5-0.2-0.5-0.2-1.2
		c-0.3-2.7,0-7.3,0.2-10.9c0.7-8.5,1-16.5,2-25.3c0.1-0.9,0-1.8,0.2-2.5c0.1-0.3,0.4-0.5,0.5-0.7c0.2-0.3,0-0.7,0.2-1
		c0.4-0.6,1.6-1.6,2.5-2c0.6-0.3,1.2-0.3,1.7-0.5c0.6-0.2,1.2-0.3,1.5-0.5c1.3-0.9,1.3-3,2.5-4.2c0.2-0.2,0.8-1.2,1.2-1.5
		C182.3,0.9,183.5,0.6,184.4,0.4z M185.6,1.7c-1.1,0.1-2.1,0.5-2.7,1c-1.9,1.5-1.6,3.7-3.5,5.2c-0.7,0.6-2.2,1-3,1.2
		c-0.7,0.2-0.6,0.2-1,0.5c-1,0.6-1,0.7-1.2,1.2c0,0.1-0.4,0.2-0.5,0.2c-0.1,0.1,0.1,0.4,0,0.5c0,0.1-0.4,0.1-0.5,0.2
		c-0.1,0.3-0.2,0.8-0.2,1c-0.5,1.9-0.3,4.2-0.5,6.5c-0.4,5.6-0.9,10.1-1.2,14.7c-0.1,1.8-0.2,4.5-0.5,5.5c-0.1,0.2,0,0.5,0,0.7
		c-0.2,3.2-0.7,6.3-0.5,9.2c0.4,4.1,2.6,8.1,5.2,9.7c0.2,0.1,0.5,0.1,0.7,0.2c0.4,0.2,0.7,0.8,1,1c0.5,0.3,2,0.7,2.2,1
		c0.1,0.1,0.4,0,0.5,0c0.1,0.1,0.7,0.4,1,0.5c2,0.7,4.6,1.5,6.2,2c0.7,0.2,1.1,0.3,1.7,0.5c2,0.6,4.5,1.3,6,2
		c0.5,0.2,0.9,0.3,1.2,0.5c1,0.5,1.9,1.4,3,2.2c0.6,0.5,0.8,1,1.5,1.2c1.3,0.6,3.3,0.5,4.5,0c0.3-0.1,0.8-0.7,1-0.7
		c0.8,0,1.7-2,2.2-2c0.3,0,0.5-0.4,0.7-0.5c1.8-1,5-2.2,7-2.7c2.1-0.5,4.8-1.1,6.5-1.7c0.3-0.1,0.4-0.1,0.7-0.2
		c4.7-1.6,8.2-3.6,10.4-7.2c0.6-1,1.7-2.6,1.7-3.7c0-0.3,0.2-0.4,0.2-0.5c0.3-1.6,0.4-4.2,0.2-5.7c-0.8-8.7-1.3-16.4-2-25.3
		c-0.2-2.5-0.3-5.8-0.7-7.5c-0.2-0.8-0.1-0.9-0.5-1.2c-0.1-0.1,0.1-0.4,0-0.5c-0.2-0.3-0.9-0.9-1-1c-0.4-0.3-1.1-0.3-1.5-0.5
		c-0.1-0.1,0-0.2-0.2-0.2c-0.2,0-0.3,0-0.5,0c-1.3-0.4-2.9-1.4-3.5-2.2c-0.1-0.1,0.1-0.4,0-0.5c0-0.1-0.4-0.1-0.5-0.2
		c-0.2-0.4-0.1-0.7-0.2-1c-0.3-0.6-0.4-1.3-0.7-1.7c-0.2-0.2-0.5-0.3-0.7-0.5c-1.2-1-2.3-1.1-4.7-1.2c-4.6-0.2-9.6,0-13.9,0
		c-6.8,0-13.3-0.4-18.6,0c-0.2,0-0.2,0.2-0.2,0.2C185.9,1.7,185.8,1.7,185.6,1.7z"/>
	<path class="st0" d="M185.8,2.7c0.1,0,0-0.2,0.2-0.2c5.8-0.4,12.1,0,18.4,0c2.7,0,5.9,0,9.2,0c3.3,0,8.3-0.5,9.7,0.7
		c0.6,0.5,0.7,1.5,1.2,2.5c0.5,1,1.2,2.1,2,2.7c1.9,1.5,4,0.9,5.2,2.5c0.3,0.5,0.3,1.2,0.5,2c0.5,2.5,0.5,6.3,0.7,9.2
		c0.5,6.4,0.9,12.7,1.5,19.4c0.1,1.2,0.5,3.8,0.5,5.5c-0.1,2.3-0.9,4.7-1.7,6.5c-0.1,0.2-0.1,0.5-0.2,0.7c-0.3,0.5-1,0.9-1.5,1.5
		c-0.3,0.4-0.4,0.8-1,1.2c-0.3,0.3-0.6,0.7-1,1c-0.2,0.2-0.5,0.1-0.7,0.2c-0.4,0.3-0.6,0.7-1,1c-0.3,0.2-0.5,0.1-0.7,0.2
		c-0.2,0.1-0.4,0.4-0.5,0.5c-0.5,0.2-1.2,0.3-1.7,0.5c-0.3,0.1-0.4,0.3-1,0.5c-0.6,0.2-2.3,0.9-3.2,1.2c-4.4,1.3-8.9,2.1-12.2,4
		c-0.4,0.2-0.8,0.3-1.2,0.7c-1.3,1.2-4,4.2-7,2.5c-0.5-0.3-0.7-0.8-1.2-1.2c-0.5-0.4-1-0.7-1.5-1c-0.5-0.3-0.9-0.8-1.2-1
		c-0.3-0.2-0.6-0.1-1-0.2c-0.3-0.2-0.4-0.3-1-0.5c-0.6-0.2-2.2-0.9-3.2-1.2c-0.2,0-0.3,0-0.5,0c-1.6-0.4-4.5-1.4-6.5-2
		c-1.6-0.5-2.9-0.8-4.5-1.5c-0.4-0.2-0.8-0.5-1.2-0.7c-0.5-0.3-1.1-0.3-1.5-0.5c-0.4-0.2-0.6-0.7-1-1c-0.8-0.6-1.6-1-2.2-1.7
		c-0.2-0.2-0.1-0.6-0.2-0.7c-0.1-0.1-0.4-0.2-0.5-0.2c-0.2-0.4-0.2-0.9-0.5-1.5c-0.2-0.4-0.7-0.7-0.7-1c-0.1-0.2,0.1-0.5,0-0.7
		c-0.1-0.3-0.1-0.6-0.2-1c-0.6-2-0.2-6.6,0-9.2c0.5-6.1,1.3-13.8,1.7-20.4c0.1-1.7,0.1-3.4,0.2-5c0.1-1.6,0.2-3.2,0.7-4.2
		c0.4-0.8,1.6-2,2.5-2.5c0.5-0.3,1.3-0.3,2-0.5c0.3-0.1,0.5-0.4,0.7-0.5c0.3-0.1,0.7,0,1-0.2c1.2-1,1.3-3.2,2.5-4.5
		c0.2-0.2,0.5-0.3,0.7-0.5c0.5-0.5,0.8-1,1.7-1.2C185.5,2.6,185.7,2.7,185.8,2.7z M184.4,5.9c-1.5,3.3-4,5.8-8,6.7
		c-0.6,8.5-1.3,18.5-2,26.8c-0.3,3.3-0.9,7.5-0.2,9.4c0.4,1.3,0.2,2,0.7,2.5c0.1,0.1,0,0.4,0,0.5c0.3,0.6,0.9,1.5,1.2,2
		c0.1,0.2,0.9,1,1,1c0.3,0,0.1,0.2,0.2,0.2c0.7,0.4,1.1,0.8,1.7,1.2c1.3,0.8,2.8,1.6,4.2,2c0.2,0,0.2,0.2,0.2,0.2
		c1.7,0.7,3.6,1.1,5.2,1.5c0.8,0.2,1.5,0.4,2,0.5c0.2,0,0.2,0.2,0.2,0.2c1,0.3,2.4,0.5,3,0.7c0.8,0.3,2.1,0.9,2.5,1
		c0.6,0.2,0.7,0.4,1,0.5c1.7,0.8,2.2,1,3.7,2.2c0.8,0.6,1.5,1.7,2.5,1.7c1.1,0,1.8-1.2,2.5-1.7c3.9-3.1,8.7-4,14.4-5.7
		c4.1-1.2,8.4-2.6,10.2-5.5c0.1-0.1-0.1-0.4,0-0.5c0-0.1,0.4-0.1,0.5-0.2c0.1-0.2,0.5-1.7,0.5-1.7c0.9-2.9,0-6.8-0.2-10.2
		c-0.6-8.1-1.1-15.9-1.7-23.6c-0.2-1.9-0.2-3.7-0.7-4.5c-0.7-1-2.5-1-3.5-1.5c-0.3-0.1-0.3-0.4-0.5-0.5c-0.4-0.3-1.1-0.4-1.5-0.7
		c-0.4-0.3-1-1.4-1.2-1.7c-0.5-0.7-0.6-1.6-1-2.2c-0.9-1.7-2.4-1.5-5.2-1.5c-10.8-0.1-21,0.1-31.3,0C184.4,5.2,184.5,5.6,184.4,5.9z
		"/>
	<path class="st0" d="M210.9,11.4c0,1.3,0,1.3-0.2,1.7c-0.7,1-2,0.3-3,1c-1.6,1.2-0.4,3.1,0.7,5.7c0.7,1.5,1.3,3.1,1.7,4.2
		c0.2,0.4,0.6,0.7,0.7,1c0.2,0.4,0.1,0.9,0.2,1.2c0.1,0.1,0.2,0,0.2,0.2c0,0.2,0.5,1.3,0.7,1.7c0.4,1,1,1.9,1.5,3
		c0,0.1-0.1,0.4,0,0.5c0.3,0.3,0.3,0.4,0.5,1c0.1,0.3,0.4,0.5,0.5,0.7c0,0.1-0.1,0.4,0,0.5c0.4,0.4,0.4,0.9,0.7,1.7
		c0,0.1,0.2,0,0.2,0.2c0,0.5,0.9,2.1,1.2,2.7c0.2,0.3,0.3,0.6,0.5,1c0,0.1-0.1,0.4,0,0.5c0.9,0.7,1.5,3.1,2.2,4.7
		c0.5,1.1,0.9,1.9,1.7,2.7c0.3,0.3,0.4,0.6,0.7,0.7c0.7,0.3,2.6-0.2,2.7,0.2c0.5,1-0.2,1.5-1.2,1.7c-0.2,0-0.3,0-0.5,0
		c-0.6,0.2-2.5,0.9-3.5,1.2c-1,0.4-2.1,0.8-3,1.2c-1,0.5-1.7,1.5-2.7,1.5c-0.9-1.6,1.5-2,1.7-3.2c0.3-1.3-0.5-2.6-1.2-4.2
		c-0.6-1.4-1.1-2.8-1.5-3.7c-0.1-0.1-0.2,0-0.2-0.2c0-0.1-0.2-0.6-0.2-0.7c-0.1-0.2-0.4-0.6-0.5-0.7c-0.5-1-0.7-2-1.2-3
		c-0.3-0.5-0.4-0.9-0.7-1.7c-0.4-1-1.2-2.4-1.7-3.7c-1.5-3.6-3.8-8.1-5.2-11.9c-0.8,1-1.2,2.3-1.7,3.5c-0.4,0.9-0.8,1.8-1.2,2.7
		c-0.2,0.5-0.2,1-0.5,1.5c-0.1,0.1-0.2,0-0.2,0.2c0,0.4-0.9,2-1.2,2.7c-0.4,1-0.8,1.8-1.2,2.7c-0.6,1.2-1.3,3-2,4.5
		c-0.4,1-0.8,1.8-1.2,2.7c-0.6,1.2-1.3,3-2,4.5c-0.7,1.5-1.3,2.7-1.2,3.7c0,0.3,0.1,1,0.2,1.2c0.2,0.3,1.3,0.9,1.5,1.2
		c0.3,0.4,0.1,0.3,0,0.7c-0.2,0.8-0.6,1.2-1,1.2c-0.4,0-0.7-0.6-1.2-0.7c-0.5-0.2-1-0.5-1.5-0.7c-0.3-0.2-0.4-0.3-1-0.5
		c-0.2-0.1-0.1-0.2-0.2-0.2c-2.3-1-3.9-1.4-6.2-2c-0.4-0.4,1.3-2.3,1.5-2c0.1,0.1,1.5,0.6,2.2,0.2c0.8-0.4,1.5-2.1,2.2-3.7
		c0.9-1.9,1.5-3.3,2.2-5c0-0.1-0.1-0.4,0-0.5c0.6-0.5,0.8-1.7,1.2-2.7c0.1-0.1,0.2,0,0.2-0.2c0-0.3,0.5-1.3,0.7-1.7
		c0.2-0.3,0.4-0.7,0.5-1c0.3-0.5,0.4-1.1,0.7-2c0-0.1,0.2,0,0.2-0.2c0-0.2,0.6-1.3,0.7-1.7c0.8-2,2.2-4.6,3.2-7
		c0.1-0.3,0.4-0.7,0.5-1c0-0.1-0.1-0.4,0-0.5c0.5-0.4,0.4-0.9,0.7-1.7c0-0.1,0.2,0,0.2-0.2c0-0.6,1-1.5,0.7-3
		c-0.3-1.6-1.9-2.6-4-2.5c-0.1-0.8-0.1-1.8,0.7-2.2c0.6-0.3,2.5,0.4,3.7,0.5C203.6,12.2,207.8,11.8,210.9,11.4z"/>
	<path class="st0" d="M195.3,24.8c-0.7,0.2-1.4-1.8-2-2.5c-0.8-0.9-0.7,0.7-1.2,1.7c-0.2,0.3-0.3,0.4-0.5,1
		c-0.1,0.4-1.1,1.9-1.2,2.5c-0.2,0.6-0.7,1.5-1,2.2c-0.2,0.5-0.3,1-0.5,1.5c-0.1,0.1-0.5,0.4-0.5,0.5c-0.1,0.2,0.1,0.5,0,0.7
		c-0.1,0.3-0.5,0.7-0.7,1.2c-0.1,0.3-0.4,0.6-0.5,1c-0.2,0.8-0.8,2-1.2,3c-0.1,0.2-0.1,0.5-0.2,0.7c-0.2,0.3-0.5,0.7-0.7,1.2
		c-0.3,0.8-1.1,2.4-1,3.5c0.2,1.2,0.9,1.4,1.5,2.2c0.2,0.2,0.3,0.5,0.2,1c-0.9,0.5-1.5-0.6-2.2-1c-0.8-0.4-1.6-0.6-2.5-1
		c-0.8-0.4-1.6-0.7-2.5-1c-0.9-0.3-1.9-0.3-2.5-1c-0.2-1.3,1.1-0.4,2-0.5c2.4-0.3,3.1-3.2,4-5.5c0-0.1,0.2,0,0.2-0.2
		c0.1-0.6,0.4-1.2,0.7-2c0.2-0.3,0.3-0.4,0.5-1c0.2-0.7,1.1-2.4,1.5-3.2c0.7-1.6,1.3-2.9,2-4.5c0.1-0.2,0.1-0.5,0.2-0.7
		c0.1-0.1,0.4-0.4,0.5-0.5c0.2-0.5,0.2-1.1,0.5-1.7c0.3-0.6,2-3.8,2-4.2c-0.1-1.2-2.5-2-1.5-3c1.3-0.8,2.5,0.1,3.5,1.2
		c0.2,0.2,0.1,0.6,0.2,0.7c0.1,0.1,0.4,0.1,0.5,0.2c0.4,0.5,0.6,0.9,1,1.5c0.1,0.1,0.2,0,0.2,0.2c0,0.4,0.7,0.5,0.7,1
		c0,0.4,0.7,0.5,0.7,1c0,0.3,0.4,0.3,0.5,0.5C196.5,22.5,195.5,23.8,195.3,24.8z"/>
	<path class="st0" d="M217.6,15.4c0,1.4-1.3,1.5-1.7,2.5c2.4,5.7,5.9,13.4,8.7,19.6c0.6,1.4,1,2.6,2,3.5c0.5,0.4,0.5,0.5,1.2,0.7
		c0.1,0,0.3,0.3,0.2,0.2c0.7,0.1,1.5-0.6,2,0c0.4,1.1-1.3,1-2,1.2c-1.2,0.4-2.3,0.8-3.5,1.2c-0.1,0,0,0.2-0.2,0.2
		c-0.9,0.2-1.7,0.8-2.7,1.2c-0.3,0.2-0.6,0.7-1,0.2c-0.1-1,1.3-1.3,1.5-2.5c0.2-1-0.3-2-0.7-3.2c-0.2-0.6-0.7-1.2-1-2
		c-0.2-0.5-0.4-1.3-0.7-2c-0.1-0.3-0.3-0.4-0.5-1c-0.1-0.2-0.2-0.1-0.2-0.2c-0.4-0.9-0.6-1.9-1-2.7c-0.1-0.3-0.5-0.7-0.7-1.2
		c-1.1-2.6-2.9-6.4-4-9.2c-1.2,0.3-1.4,1.6-2,2.5c-0.7-0.4-0.6-1.8-1.2-2.2c0.9-1.5,2.7-3.7,4.2-5.5
		C215.2,15.7,215.6,14.5,217.6,15.4z"/>
	<path class="st0" d="M14.2,18.6c1.1,0.3,1.2,1.8,1.7,3.2c0.1,0.2,0.4,0.6,0.5,0.7c0.4,1.1,0.8,2.4,1.2,3.5c0.1,0.3,0.1,0.6,0.2,1
		c0.1,0.2,0.4,0.6,0.5,0.7c0.5,1.3,0.7,2.3,1.2,3.7c0.1,0.2,0.4,0.6,0.5,0.7c0.1,0.1,0,0.3,0,0.5c0.1,0.2,0.2,0.1,0.2,0.2
		c0.4,1.2,0.7,2.4,1.2,3.7c0.1,0.2,0.4,0.6,0.5,0.7c0.2,0.4,0.1,0.6,0.2,1c0.1,0.2,0.1,0.7,0.2,1c0.1,0.1,0.5,0.4,0.5,0.5
		c0.2,0.6,0.2,1.3,0.5,2c0.1,0.2,0.4,0.6,0.5,0.7c0.5,1.2,1.1,3.3,2,4c0.7,0.5,1.9,0.4,2.5,1c-0.5,0.9-1.8,0.3-2.7,0.2
		c-2.1,0-4.4,0-6.2,0.2c-0.5-1,1.3-0.9,1.5-1.7c0.1-0.6-0.1-0.7-0.2-1.2c-0.1-0.2-0.2-0.4-0.2-0.7c-0.1-0.3-0.4-0.6-0.5-0.7
		c-0.3-0.9-0.5-2-0.7-2.7c0-0.1-0.2-0.1-0.2-0.2c-0.1-0.5-0.4-0.7-0.5-1.2c-0.3-1-0.8-2.4-1.2-3.5c-1.5-3.9-2.8-7.4-3.7-10.2
		c-0.8-0.1-1,1.1-1.2,1.7c-0.2,0.4-0.3,0.7-0.5,1.2c0,0.1,0.1,0.4,0,0.5c-0.1,0.1-0.4,0.6-0.5,0.7c0,0.1,0.1,0.4,0,0.5
		c0,0-0.2,0-0.2,0c-0.3,0.9-0.4,1.8-0.7,2.7c0,0.1-0.2,0.1-0.2,0.2c-0.1,0.5-0.4,0.7-0.5,1.2c-0.6,2.5-2.2,5.8-3.2,8.7
		c-0.4,1.1-0.9,2.2-0.7,2.7c0.2,0.8,0.4,0.7,1,1c0.4,0.2,1.2,0,1,0.7c-1.2,0.3-3.1,0-4.7,0c-1.1,0-2.2,0.6-3,0
		c0-0.8,1.1-0.5,1.5-0.7c0.6-0.3,1.4-1.1,1.7-1.5c0.2-0.3,0.1-0.7,0.2-1c0.1-0.2,0.4-0.4,0.5-0.7c0.2-0.5,0.3-1.1,0.5-1.7
		C4.5,42,4.9,41.6,5,41.4c0.1-0.3,0.1-0.5,0.2-0.7c0.5-1.2,0.7-2.1,1.2-3.5C6.6,36.7,6.8,36.6,7,36c0.2-0.8,1.1-2.4,1.5-3.5
		c0.9-2.2,1.7-4.6,2.5-6.7c0.4-1.1,0.8-2.2,1.2-3.2c0.1-0.2,0.4-0.6,0.5-0.7c0.1-0.3,0.1-0.5,0.2-0.7C13.3,20.1,13.4,19.3,14.2,18.6
		z"/>
	<path class="st0" d="M248.2,18.8c0.4-0.1,0.4,0.2,0.7,0.2c1.1,2.4,2.2,4.8,3.5,7.2c0.4,0.7,0.8,1.7,1.2,2.7
		c0.7,1.5,1.9,3.7,2.7,5.5c0.2,0.4,0.5,0.8,0.7,1.2c0.9,1.9,1.3,4,2.7,5.5c0.9-1.3,1.5-2.7,2.2-4.2c0.1-0.2,0.1-0.5,0.2-0.7
		c0.1-0.1,0.4-0.4,0.5-0.5c0.2-0.5,0.3-1.2,0.5-1.7c0.4-0.8,1-1.7,1.5-2.7c0.6-1.4,1.3-2.8,2-4.2c0.9-2,1.8-3.7,2.7-5.7
		c0.4-0.9,0.5-2.3,1.7-2.5c0.8,1.9,0.7,4.3,1,6.7c0.6,5.3,1.4,11.1,2,16.6c0.2,1.7-0.1,4.2,1,4.7c0.3,0.2,0.8,0.2,1.2,0.5
		c0.3,0.2,0.6,0,0.5,0.5c-3.2-0.1-6.9,0.2-9.4,0c-0.1-0.5,0.2-0.4,0.5-0.5c0.4-0.2,1.2-0.1,1.7-0.7c0.2-0.3,0.4-1.4,0.5-2.2
		c0.2-2.2-0.3-4.8-0.5-7c-0.3-3.5-0.6-6.8-1-8.9c-0.7,0-0.5,0.8-0.7,1.2c-0.3,0.7-0.8,1.5-1.2,2.5c-0.2,0.4-0.6,0.6-0.7,1
		c-0.4,0.9-0.6,1.9-1,2.7c-0.3,0.6-0.8,1.3-1.2,2.2c-1.1,2.4-2.2,5-3.5,7.5c-0.3,0.6-0.5,1.8-1.5,2c-3.3-6.3-6.1-12.9-9.4-19.1
		c-0.6,1-0.6,2.4-0.7,4c-0.2,2.7-0.3,5.9-0.5,8.9c-0.1,1.7-0.6,3.5-0.2,4.5c0.3,0.8,0.7,0.9,1.2,1.2c0.4,0.3,1.3,0.1,1.2,1
		c-2.6-0.2-5.7-0.4-8.2,0c-0.1-0.9,1-0.9,1.5-1.2c1.3-1,1.4-1.8,1.7-4.5c0.6-5.1,1.2-10.8,1.7-16.2
		C247.5,23.3,247.4,20.7,248.2,18.8z"/>
	<path class="st0" d="M91.2,19.3c0.3,1-0.8,0.8-1.2,1c-0.7,0.3-1.1,0.1-1.5,0.7c-0.6,1-0.2,3.8-0.2,6c0,5.6,0,13.8,0,18.6
		c0.8,0.5,1.8,0.2,2.7,0.2c2.4,0,5.5,0,8.2,0c0.4-4.5,0.2-12.6,0.2-18.6c0-1.1,0-2.2,0-3.2c-0.1-2.1,0-3-1.5-3.7
		c-0.4-0.2-1.4,0.1-1.2-0.7c1.5-0.4,3.6,0.1,5.5,0c1.4,0,2.6-0.6,3.7,0c0.1,0.9-1,0.5-1.5,0.7c-1.4,0.7-1.2,1.4-1.2,4.2
		c0,6.2,0,15.3,0,21.1c0.8,0.5,1.8,0.2,2.7,0.2c2.4,0,5.5,0,8.2,0c0.4-4.4,0.2-12.7,0.2-18.6c0-2.3,0.3-4.9-0.2-6
		c-0.3-0.6-0.7-0.8-1.2-1c-0.5-0.2-1.2,0.1-1.5-0.5c0.5-1.1,1.7-0.3,2.7-0.2c1.1,0,2.2,0,3.2,0c1.2,0,2.6-0.6,3.5,0
		c0.3,0.9-1.1,0.4-1.7,0.7c-1.4,0.9-1,3.7-1,7.5c0,4,0,8,0,12.2c0,3.1-0.5,5.8,0.7,6.7c0.5,0.4,1.9,0.5,2.7,1
		c-1.3,0.8-3,0.3-4.5,0.2c-9.8-0.3-21.1-0.2-31.3,0c-1.7,0-3.2,0.3-4.7,0c-0.1-0.8,1-0.6,1.7-1c0.5-0.3,1.2-0.5,1.5-1
		c0.1-0.2,0.2-1.5,0.2-2.5c0.3-5.4-0.2-10.5-0.2-16.1c0-2.4,0.3-5.2,0-6c-0.1-0.1-0.5-0.2-0.5-0.2c-0.2-0.5-0.1-0.5-0.7-0.7
		c-0.7-0.3-1.7,0.1-1.7-0.5c0-0.9,1.3-0.5,1.7-0.5c1.8,0,4.6,0.5,6.7,0C90.2,19.2,90.6,18.9,91.2,19.3z"/>
	<path class="st0" d="M324.2,20.6c-0.5,1.8,0.4,3.8-0.2,5.7c-1-0.4-0.8-1.6-1.2-2.2c-0.5-0.8-1.3-1.4-2-2c-0.5-0.5-3.4-1.3-4.7-1.5
		c-2-0.2-3.9-0.1-5.2,0.2c-0.2,0.1-0.2,0.2-0.2,0.2c-0.9,0.2-1.3,0.3-2,0.7c-0.4,0.2-0.8,0.4-1.2,0.7c-0.1,0.1,0,0.2-0.2,0.2
		c-0.4,0-1.9,2.1-2.2,2.7c-0.1,0.3-0.1,0.8-0.2,1.2c-0.1,0.2-0.5,0.6-0.5,0.7c-0.6,2-0.8,6.5-0.2,9.2c0.3,1.4,1,2.9,1.7,4.2
		c1.4,2.5,2.4,3.6,5,5c3.7,2,10.2,1.4,12.4-2c0.4-0.6,0.4-1.3,1-2c0.6,0.8,0.2,1.8,0,2.7c-0.2,0.9-0.3,2-0.7,2.5
		c-0.9,0.9-4.3,1.1-6.2,1.2c-3.6,0.3-7.7-0.1-10.4-1.7c-0.3-0.2-0.3,0-0.5-0.2c-0.2-0.2-0.5-0.3-0.7-0.5c-0.1-0.1-0.7-0.2-1-0.5
		c-0.4-0.3-0.7-0.9-1-1.2c-0.6-0.6-0.9-0.9-1.5-1.5c-0.2-0.2-0.2-0.7-0.5-1.2c-0.1-0.1-0.4-0.4-0.5-0.5c-0.2-0.5-0.3-1.2-0.5-1.7
		c0-0.1-0.5-0.7-0.5-0.7c-0.4-1.9-0.9-5.6-0.2-8.2c0.1-0.2,0.1-0.6,0.2-1c0.1-0.2,0.2-0.4,0.2-0.7c0.1-0.5,0.9-1.9,1.2-2.7
		c0.6-1.3,2.3-3.3,3.7-4.2c0.6-0.3,1.2-0.6,2-1c0.3-0.2,0.4-0.3,1-0.5c0.2-0.1,0.4-0.2,0.7-0.2c0.2-0.1,0.4-0.2,0.7-0.2
		C314.1,18.5,319.1,19.2,324.2,20.6z"/>
	<path class="st0" d="M351.1,19.6c0.3,0.9-0.3,2.8-0.5,4c-0.8-0.1-0.4-1.1-1-1.5c-1-0.7-5.7,0-8-0.2c-0.5,0.8-0.2,1.9-0.2,3
		c0,4.8,0,10.5,0,15.9c0,2.4-0.3,4.6,0.5,5.7c0.7,1,2,0.9,3,1.2c-0.8,1-2.1,0.3-3.5,0.2c-2.4-0.1-5.3,0.3-7.2,0
		c0.1-0.7,1.2-0.5,1.7-0.7c1.6-0.7,1.5-1.3,1.5-4.2c0-6.2,0-15.3,0-21.1c-1.1,0-2.6,0-4.2,0c-1.3,0-3.2-0.3-4,0
		c-0.8,0.3-1.1,0.9-1.2,1.7c-1.2-0.8,0.2-3.2,0.5-4.5c2.8,0.8,7.8,0.5,12.4,0.5C344.4,19.6,348.1,19.6,351.1,19.6z"/>
	<path class="st0" d="M363.5,19.3c0,0,0.1-0.2,0.2-0.2c1.7-0.2,4.5,0,5.7,0.2c1,0.2,2.3,0.7,3.5,1.2c1.3,0.6,1.7,0.9,2.7,1.7
		c0.7,0.6,1.3,1.2,2,2c1.4,1.5,2.2,3.4,3,6c0.4,1.5,0.3,5.8-0.2,7.7c-0.1,0.5-0.2,1.2-0.5,2c0,0.1-0.2,0.1-0.2,0.2
		c-0.1,0.6-0.7,1.2-0.7,1.7c0,0.3-0.4,0.3-0.5,0.5c-0.2,0.5-0.7,1.3-1.2,2c-0.8,0.9-2,1.9-3,2.5c-0.1,0.1-0.4-0.1-0.5,0
		c-0.6,0.7-2.1,0.9-3.5,1.2c-0.3,0.1-0.9,0.2-1.7,0.2c-1.5,0.1-4.3,0.2-6-0.5c-0.1,0-0.4,0.1-0.5,0c-0.3-0.4-2-0.8-2.7-1.2
		c-0.1-0.1,0-0.2-0.2-0.2c-0.3,0-0.6-0.5-1-0.7c-0.7-0.5-1.2-0.8-1.7-1.2c-0.2-0.2-0.5-0.5-0.7-0.7c-0.7-0.8-1.6-2.4-2.2-3.7
		c0-0.1,0.1-0.4,0-0.5c-1.3-1.1-1.3-7.2-0.7-9.2c0.1-0.5,0-0.5,0.2-1.2c0.2-0.8,1.1-2.2,1.5-3c0.2-0.3,0.1-0.7,0.2-1
		c0.1-0.1,0.5-0.2,0.5-0.2c0.1-0.1-0.1-0.4,0-0.5c0.4-0.5,1.3-1.4,2-2c0.2-0.1,0.4-0.4,0.5-0.5c0.2-0.1,0.5-0.1,0.7-0.2
		c0.4-0.3,0.7-0.9,1-1c0.3-0.2,0.6-0.1,1-0.2c0.2-0.1,0.6-0.4,0.7-0.5C361.5,19.7,362.5,19.5,363.5,19.3z M361,21.8
		c-0.2,0.2-0.3,0.1-0.5,0.2c-0.8,0.6-1.5,1.8-2,2.5c-0.5,0.8-0.8,0.9-1,1.7c0,0.2-0.2,0.2-0.2,0.2c-0.2,0.6-0.1,0.8-0.2,1.2
		c0,0.2-0.2,0.2-0.2,0.2c-0.8,3.2-0.5,7.1,0.2,9.7c0.3,1.1,0.5,2.3,1,3.2c0.1,0.3,0.5,0.4,0.7,0.7c0.2,0.4,0.3,0.9,0.5,1.2
		c0.2,0.2,0.5,0.5,0.7,0.7c0.4,0.5,0.7,1,1,1c0.3,0,0.1,0.2,0.2,0.2c0.5,0.3,0.9,0.5,1.2,0.7c1.8,1.1,4.6,1.6,6.7,1.2
		c1-0.2,1.6-0.5,2-0.7c0.7-0.4,1.1-0.4,1.5-0.7c0.8-0.6,1.2-1.1,1.7-1.7c1.3-1.7,2.3-4.4,2.5-7c0.4-6.4-2.5-13.4-7.2-15.4
		c-1.5-0.6-3.3-1-5.5-0.7c-0.2,0-0.2,0.2-0.2,0.2C362.9,21,361.5,21.4,361,21.8z"/>
	<path class="st0" d="M32.8,19.6c0.1,0.9-1.2,0.5-1,1.5c0.2,1.5,0.9,2.9,1.5,4.2c0.3,0.7,0.4,1.5,0.7,2.2c0,0.1,0.2,0,0.2,0.2
		c0,0.4,0.5,1,0.7,1.5c0.6,1.3,1.1,2.6,1.7,4c0.3,0.7,0.7,1.3,1,2c0.3,0.5,0.3,1.4,1,1.7c0.9-0.9,1.1-2.5,1.7-4
		c0.1-0.4,0.4-0.7,0.5-1c0.2-0.5,0.5-1.5,0.7-2c0.1-0.2,0.4-0.6,0.5-0.7c0.4-0.8,0.7-2,1.2-3c0.3-0.6,0.9-1.8,1.2-2.7
		c0.3-0.8,0.5-2,0.5-2.2c-0.2-0.7-0.4-0.7-0.7-1c-0.3-0.2-0.9-0.2-0.7-0.7c2.8,0.2,5.8-0.4,8,0c-0.4,0.8-1.7,0.5-2.5,1
		c-0.3,0.2-1.1,0.6-1.2,1c-0.2,0.3-0.2,0.7-0.5,1.2C47.3,23,47,23.4,47,23.6c-0.3,0.6-0.2,1.4-0.5,2c-0.1,0.2-0.4,0.5-0.5,0.7
		c-0.3,0.6-0.5,1.1-0.7,1.7c-0.4,1-1,2.3-1.5,3.5c-0.3,0.8-0.6,1.7-1,2.7c-0.1,0.2-0.4,0.6-0.5,0.7c-0.2,0.4-0.1,0.6-0.2,1
		c-0.1,0.2-0.4,0.6-0.5,0.7c-0.2,0.4-0.1,0.6-0.2,1c-0.1,0.2-0.4,0.6-0.5,0.7c-0.2,0.4-0.1,0.6-0.2,1c-0.1,0.2-0.4,0.6-0.5,0.7
		c-1,2.4-1.9,5.6-3.5,7.7c-2-0.1-4.6,0.3-6.2-0.2c0.6-0.8,1.7-0.5,2.5-0.7c0.7-0.2,1.9-0.9,2.5-1.7c0.2-0.3,0.1-0.7,0.2-1
		c0.1-0.3,1-1.5,1-2.2c0-0.3-0.3-0.9-0.5-1.5c-0.9-2.3-2.2-4.8-3.2-7.5c0-0.1-0.2,0-0.2-0.2c0-0.1,0.1-0.4,0-0.5
		c-0.2-0.4-0.6-0.6-0.7-1c-0.3-0.6-0.3-1.5-0.7-2.2c-0.1-0.1-0.4-0.4-0.5-0.5c-0.4-0.9-0.6-1.9-1-2.7c-0.1-0.3-0.5-0.7-0.7-1.2
		c-0.5-1.1-1.2-3.2-2-3.7c-0.1-0.1-0.4,0.1-0.5,0c-0.5-0.6-1.6-0.5-2.5-1c0.6-1.1,2-0.3,3.2-0.2C29,19.6,31.4,19.3,32.8,19.6z"/>
	<path class="st0" d="M61.1,19.6c-0.1,0.8-1,0.6-1.2,0.7c-0.4,0.2-0.7,0.5-1,1c-0.7,1.4-0.4,8.5,0.2,9.9c0.3,0.6,1.1,1.8,1.7,2.2
		c0.3,0.2,0.7,0.1,1,0.2c0.1,0.1,0.4,0.5,0.5,0.5c0.2,0.1,0.5-0.1,0.7,0c1.2,0.4,3.9,0.3,5.2-0.2c0.1,0,0.4,0.1,0.5,0
		c0.2-0.2,1.7-0.7,2-1.2c0.4-0.8,0-3.5,0-5.7c0-3,0.5-5.8-1.2-6.7c-0.4-0.2-1,0-1.5-0.5c0.8-1.1,2.4-0.3,3.7-0.2
		c2.1,0.1,4.2-0.4,5.7,0c-0.1,0.7-1.9,0.6-2.5,1.2c-1.1,1.3-0.5,10.1-0.5,13.4c0,4.5-0.7,10,0.5,11.9c0.7,1,2.2,1.1,3,1.5
		c-0.4,0.9-1.4,0.3-2.2,0.2c-0.9,0-2,0-3,0c-2,0-4.1,0.3-5.5,0c0.1-0.7,1-0.7,1.2-0.7c0.7-0.2,1.3-0.2,1.7-1c0-0.1-0.1-0.4,0-0.5
		c0.3-0.2,0.1-0.3,0.2-0.7c0.6-1.8,0.1-7.4,0.2-10.2c-1,0.2-1.5,0.3-2,0.5c-0.2,0.1-0.6,0.5-0.7,0.5c-0.1,0.1-0.3,0-0.5,0
		c-0.9,0.2-3.5,0.6-5.2,0.5c-4.3-0.3-7-2.5-7.5-7.2c-0.1-1.2,0-2.7,0-4.2c0-1.1,0.3-2.8-0.2-3.7c-0.5-0.8-1.6-0.7-2.7-1.2
		c0.3-1,2.1-0.3,3.5-0.2C57.4,19.7,59.7,19.2,61.1,19.6z"/>
	<path class="st0" d="M140.9,19.3c-0.1,1.6,0.6,2.9,0,4.2c-0.8,0-0.7-0.9-1-1.2c-0.1-0.1-0.2,0-0.2-0.2c0-0.3-0.3-0.1-0.5-0.2
		c-0.1-0.1-0.4-0.5-0.5-0.5c-1.9-0.7-5.1,0.5-7.5,0c-0.6,3-0.1,7-0.2,10.4c0.9,0.4,1.9,0.2,3.2,0.2c1.1,0,2.8,0.3,3.5,0
		c0.7-0.3,0.8-0.8,1-1.2c0.1-0.3-0.1-1.4,0.7-1.5c0,2.9-0.2,4.5,0,7.2c-0.9-0.1-0.6-1.5-1-2.2c-1.8-0.7-5.3-0.7-7.5-0.2
		c0,2,0,3.8,0,5.7c0,1.7-0.5,3.9,0.2,5.2c0.9,1.5,5.1,1.8,7.5,1c1.7-0.6,1.7-1.7,3-2.2c-0.3,1.6-0.8,3-1.5,4.2c-2.7,0-5.6,0-8.4,0
		c-2.9,0-5.6,0.1-8,0c-0.1-0.7,0.8-0.5,1.5-0.7c1-0.3,1.7-0.4,2-1.7c0.2-1.2,0-3.1,0-4.7c0-4.3,0-8.4,0-12.9c0-2.4,0.4-5.2,0-6.2
		c-0.5-1.3-2.6-1.4-3-1.7c0.1-0.2,0.2-0.4,0.5-0.5C129.7,19.8,135.9,19.6,140.9,19.3z"/>
	<path class="st0" d="M160.5,19.3c0.5,1,0.1,2.9,0.2,4.2c-0.5,0.1-0.5-0.3-0.7-0.5c-0.3-0.4-0.5-0.8-1-1.2c-1.1-0.9-5.2-0.3-8-0.5
		c-0.6,3.1-0.1,7.2-0.2,10.7c1.3-0.6,5.3,0.7,6.7,0c1.2-0.6,0.6-1.7,1.2-2.7c0.5,0.8,0.2,2.1,0.2,3.5c0,1.2,0,2.6,0,3.7
		c-1.1-0.6-0.2-1.8-1.2-2.5c-0.3-0.2-2.6-0.2-3.5-0.2c-1.3,0-2.4-0.2-3.2,0.2c-0.5,0.7-0.2,1.6-0.2,2.5c0,0.8,0,1.8,0,2.7
		c0,2.2-0.5,5.6,0.7,6.5c0.2,0.1,0.5,0.2,0.7,0.2c1,0.4,5.3,0.4,6.7-0.2c0.6-0.3,0.9-0.6,1.2-1c0.2-0.3,0.4-1,1-1
		c-0.2,1.7-0.7,3.1-1.5,4.2c-2.7,0-5.6,0-8.4,0c-2.8,0-5.6,0.2-8,0c0.5-0.9,2.5-0.5,3.2-1.7c0.7-1.3,0.2-5.5,0.2-8.7
		c0-2.9-0.1-6.1,0-8.7c0.1-2.3,0.8-6.1,0-7.5c-0.5-0.9-2.1-1.2-2.5-1.2c-0.2,0-0.2-0.3-0.2-0.5c0.2,0,0.2-0.2,0.5-0.2
		C149.5,19.8,155.6,19.6,160.5,19.3z"/>
	<path class="st0" d="M296.4,19.3c-0.2,1.6,0.6,2.9,0,4.2c-0.8,0-0.7-0.9-1-1.2c-0.1-0.1-0.2,0-0.2-0.2c0-0.3-0.3-0.1-0.5-0.2
		c-0.1-0.1-0.4-0.5-0.5-0.5c-1.9-0.7-5.1,0.5-7.5,0c-0.6,3-0.1,7-0.2,10.4c0.9,0.4,1.9,0.2,3.2,0.2c1.1,0,2.8,0.3,3.5,0
		c0.7-0.3,0.8-0.8,1-1.2c0.1-0.3-0.1-1.4,0.7-1.5c0,2.8-0.4,4.6,0,7.2c-0.9-0.1-0.6-1.5-1-2.2c-1.8-0.7-5.3-0.7-7.5-0.2
		c0,1.9,0,3.8,0,5.7c0,1.7-0.5,3.9,0.2,5.2c0.7,1.3,3.8,1.5,6.2,1.2c0.3,0,1-0.2,1.2-0.2c1.7-0.6,1.7-1.7,3-2.2
		c-0.3,1.6-0.8,3-1.5,4.2c-2.6,0-5.6,0-8.4,0c-2.9,0-5.6,0.2-8,0c-0.1-0.7,0.8-0.5,1.5-0.7c1-0.3,1.7-0.4,2-1.7c0.2-1.2,0-3.1,0-4.7
		c0-4.3,0-8.4,0-12.9c0-2.4,0.4-5.2,0-6.2c-0.5-1.3-2.6-1.4-3-1.7c0.1-0.2,0.2-0.4,0.5-0.5C285.2,19.8,291.4,19.6,296.4,19.3z"/>
	<path class="st0" d="M206.2,29.3c-0.7,0-0.8,0.9-1,1.2c-0.9,1.7-1.4,3.4-2.2,5c-0.9-2.2-1.7-4.6-3-6.5c0-0.2,0-0.3-0.2-0.2
		c-0.3,1.1-0.8,2.1-1.2,3c0.9,1.3,1.2,2.6,1.7,4c0.5,1.4,1.7,3.6,1.2,4.7c-0.1,0.2-0.2,0.3-0.2,0.5c-0.7,2.5-1.2,4.8-1.5,7.2
		c-0.3,2-0.3,3,0.2,4c0.4,0.8,0.6,1.2,1.2,1.2c0.3,0,0.1,0.2,0.2,0.2c1.4,0.5,3.4-0.2,4-0.7c0.5-0.5,0.9-1.7,1-2.5
		c0.1-0.7-0.1-1.9-0.2-3c-0.4-2.4-0.9-4.7-1.5-6.7c-0.3-0.9-0.5-1-0.2-1.2c0.1-0.1-0.1-0.8,0-1c0-0.1,0.4-0.6,0.5-0.7
		c0.1-0.4,0.2-0.7,0.2-1c0.1-0.2,0.2-0.6,0.2-0.7c0-0.3,0.2-0.1,0.2-0.2c0.2-0.6,0.2-1.2,0.5-2c0.1-0.2,0.4-0.5,0.5-0.7
		c0-0.1,0-0.2,0-0.2c0-0.3,0.2-0.1,0.2-0.2C207.6,31.2,206.3,30.9,206.2,29.3z M202.7,50.8c-2.4-0.3,0-7.1,0-7.1
		C205.3,51.6,203.3,50.9,202.7,50.8z"/>
</g>
</svg>
